HIERARCHY
ROOT Hips
{
	OFFSET 0.000000 0.000000 0.000000
	CHANNELS 6 Xposition Yposition Zposition Zrotation Yrotation Xrotation 
	JOINT LHipJoint
	{
		OFFSET 0.000000 0.000000 0.000000
		CHANNELS 3 Zrotation Yrotation Xrotation
		JOINT LeftUpLeg
		{
			OFFSET 1.363060 -1.794630 0.839290
			CHANNELS 3 Zrotation Yrotation Xrotation
			JOINT LeftLeg
			{
				OFFSET 2.448110 -6.726130 0.000000
				CHANNELS 3 Zrotation Yrotation Xrotation
				JOINT LeftFoot
				{
					OFFSET 2.562200 -7.039590 0.000000
					CHANNELS 3 Zrotation Yrotation Xrotation
					JOINT LeftToeBase
					{
						OFFSET 0.157640 -0.433110 2.322550
						CHANNELS 3 Zrotation Yrotation Xrotation
						End Site
						{
							OFFSET 0.000000 0.000000 0.000000
						}
					}
				}
			}
		}
	}
	JOINT RHipJoint
	{
		OFFSET 0.000000 0.000000 0.000000
		CHANNELS 3 Zrotation Yrotation Xrotation
		JOINT RightUpLeg
		{
			OFFSET -1.305520 -1.794630 0.839290
			CHANNELS 3 Zrotation Yrotation Xrotation
			JOINT RightLeg
			{
				OFFSET -2.542530 -6.985550 0.000000
				CHANNELS 3 Zrotation Yrotation Xrotation
				JOINT RightFoot
				{
					OFFSET -2.568260 -7.056230 0.000000
					CHANNELS 3 Zrotation Yrotation Xrotation
					JOINT RightToeBase
					{
						OFFSET -0.164730 -0.452590 2.363150
						CHANNELS 3 Zrotation Yrotation Xrotation
						End Site
						{
							OFFSET 0.000000 0.000000 0.000000
						}
					}
				}
			}
		}
	}
}
MOTION
Frames: 16
Frame Time: 0.008333
-10.006605 15.198179 -0.791825 -48.383913 81.023766 -19.666703 -8.248256 -1.631926 -1.708687 -15.231841 -0.162591 -74.052365 -0.651656 4.904094 64.397184 2.580341 8.369850 -21.476639 -2.005600 -0.000000 -4.670800 11.874065 -1.712721 -6.531485 9.958356 -16.103283 -25.374447 0.151026 -4.708964 63.546244 0.644011 10.389691 1.701160 1.393500 0.000000 -83.641300
-9.800553 15.161684 -0.791580 -46.607834 80.606818 -18.250024 -8.330514 -1.675470 -1.872374 -14.965075 0.105633 -73.360709 -0.516941 4.979308 65.968193 2.782942 9.255304 -22.896165 -2.450000 -0.000001 -4.283200 11.935657 -1.619825 -6.387507 9.392561 -15.356249 -25.376865 -0.182559 -4.744605 65.135329 0.557412 10.440218 4.018255 1.852100 0.000000 -81.733500
-9.598655 15.131470 -0.792328 -45.019133 80.255368 -16.988128 -8.414437 -1.711320 -2.035419 -14.780210 0.331840 -72.582892 -0.411776 5.035317 67.307414 2.991954 10.154411 -24.342520 -2.946600 0.000000 -4.551000 11.979444 -1.519753 -6.254556 8.898368 -14.582961 -25.545806 -0.493207 -4.789180 66.806457 0.443494 10.174871 5.983894 2.198200 -0.000000 -79.032000
-9.400772 15.107592 -0.794588 -43.681504 79.972322 -15.949643 -8.499834 -1.741892 -2.194108 -14.657407 0.518538 -71.722786 -0.332518 5.070849 68.418766 3.199659 11.039368 -25.766035 -3.479700 0.000000 -5.331100 12.008707 -1.416633 -6.140257 8.485159 -13.827106 -25.876681 -0.780950 -4.846744 68.555182 0.307167 9.517873 7.497320 2.362600 -0.000000 -75.719300
-9.206687 15.089860 -0.798859 -42.637514 79.757987 -15.182734 -8.587046 -1.768727 -2.345244 -14.577582 0.671547 -70.786626 -0.275402 5.085942 69.315838 3.397524 11.879486 -27.121316 -4.027800 -0.000001 -6.444901 12.026450 -1.312882 -6.050314 8.158583 -13.127048 -26.363797 -1.048723 -4.920132 70.373187 0.150424 8.414467 8.491235 2.300000 -0.000000 -72.006100
-9.016104 15.077832 -0.805482 -41.925068 79.610566 -14.729316 -8.676924 -1.793651 -2.486310 -14.521228 0.798901 -69.784397 -0.236870 5.081755 70.019586 3.577424 12.644004 -28.374833 -4.567200 -0.000000 -7.683100 12.034539 -1.210182 -5.987656 7.923854 -12.509435 -26.999137 -1.299881 -5.010614 72.244685 -0.028015 6.842525 8.928106 2.000700 0.000000 -68.070400
-8.828662 15.071190 -0.814507 -41.529703 79.529413 -14.579538 -8.770793 -1.816094 -2.614924 -14.479391 0.907101 -68.724181 -0.214033 5.060191 70.551297 3.733158 13.309787 -29.501033 -5.075100 0.000000 -8.860899 12.033670 -1.108263 -5.952523 7.775017 -11.994763 -27.774602 -1.536655 -5.117829 74.145897 -0.231503 4.828847 8.802706 1.498000 0.000000 -64.008400
-8.644069 15.069200 -0.825969 -41.473573 79.508890 -14.755351 -8.869587 -1.838056 -2.730432 -14.438218 1.005241 -67.623047 -0.203954 5.024165 70.940256 3.860602 13.858114 -30.494138 -5.533300 -0.000000 -9.803900 12.023399 -1.008046 -5.942470 7.715328 -11.584883 -28.681429 -1.758994 -5.240684 76.047844 -0.463296 2.444138 8.121919 0.861100 0.000000 -59.835201
-8.462014 15.071317 -0.839510 -41.731268 79.545064 -15.230490 -8.973978 -1.859311 -2.832427 -14.394634 1.099983 -66.496306 -0.204548 4.976774 71.210227 3.958781 14.283226 -31.354968 -5.930400 -0.000000 -10.426100 12.002672 -0.909439 -5.952834 7.737965 -11.275789 -29.711893 -1.964990 -5.377058 77.915912 -0.724005 -0.190774 6.919579 0.188200 0.000001 -55.482700
-8.282188 15.077038 -0.854658 -42.273229 79.632251 -15.972721 -9.084094 -1.879663 -2.921438 -14.348128 1.197582 -65.359733 -0.214286 4.921108 71.382317 4.029171 14.588124 -32.094634 -6.262100 0.000000 -10.707800 11.970130 -0.812807 -5.976919 7.835117 -11.053236 -30.858869 -2.151339 -5.524225 79.712878 -1.008992 -2.918838 5.252657 -0.412700 -0.000000 -50.857200
-8.104385 15.085945 -0.870742 -43.056174 79.764142 -16.935524 -9.199267 -1.898234 -2.998778 -14.302433 1.303301 -64.228339 -0.232152 4.860123 71.473394 4.075483 14.785122 -32.730177 -6.531300 0.000000 -10.691101 11.924598 -0.718452 -6.006649 7.996306 -10.895861 -32.115645 -2.314450 -5.678799 81.402530 -1.306997 -5.564797 3.205642 -0.846300 -0.000000 -45.911601
-7.928430 15.097676 -0.887064 -44.038992 79.933057 -18.073088 -9.317834 -1.914184 -3.066769 -14.260853 1.421857 -63.116787 -0.257538 4.796616 71.497027 4.102664 14.891493 -33.283337 -6.746200 -0.000000 -10.463100 11.865449 -0.626112 -6.034150 8.211619 -10.778325 -33.476663 -2.451205 -5.836931 82.952790 -1.600655 -7.958719 0.890704 -1.051801 0.000000 -40.705399
-7.754162 15.111998 -0.902874 -45.167905 80.131587 -19.328720 -9.437738 -1.925982 -3.128333 -14.229408 1.557270 -62.034018 -0.290274 4.732759 71.461392 4.115949 14.927103 -33.774144 -6.917400 0.000000 -10.136300 11.792516 -0.534923 -6.051770 8.469193 -10.674069 -34.934979 -2.559679 -5.994281 84.336937 -1.869082 -9.957816 -1.554574 -1.018100 -0.000000 -35.460800
-7.581451 15.128728 -0.917580 -46.404412 80.352339 -20.661458 -9.556548 -1.932767 -3.186900 -14.210829 1.712396 -60.986165 -0.330100 4.670195 71.372604 4.120009 14.910771 -34.219600 -7.055300 -0.000000 -9.833200 11.706159 -0.443385 -6.053814 8.760054 -10.558846 -36.482957 -2.639240 -6.146606 85.534488 -2.091390 -11.461375 -3.980546 -0.785900 -0.000000 -30.536100
-7.410070 15.147797 -0.930664 -47.699247 80.589163 -22.020990 -9.671848 -1.933114 -3.245850 -14.209141 1.888636 -59.973675 -0.376908 4.609903 71.232806 4.118345 14.858064 -34.629769 -7.168100 -0.000000 -9.671500 11.607415 -0.349352 -6.036480 9.073548 -10.413900 -38.111450 -2.690629 -6.290274 86.532794 -2.249521 -12.411697 -6.248503 -0.431900 0.000001 -26.310200
-7.240076 15.169111 -0.941909 -49.043365 80.836770 -23.402925 -9.782538 -1.927986 -3.309185 -14.220324 2.087909 -58.990278 -0.429941 4.552090 71.044608 4.112341 14.778514 -35.006531 -7.259600 0.000000 -9.749600 11.497046 -0.252222 -5.999294 9.405110 -10.227080 -39.805703 -2.715237 -6.422963 87.324290 -2.331483 -12.796349 -8.247659 -0.045700 -0.000000 -23.110900
